<?xml version="1.0" encoding="UTF-8"?>
<svg version="1.1" xmlns="http://www.w3.org/2000/svg" xmlns:xlink="http://www.w3.org/1999/xlink">
    <!-- Generator: Sketch 46.2 (44496) - http://www.bohemiancoding.com/sketch -->
    <title>logomark</title>
    <desc>Created with Sketch.</desc>
    <defs></defs>
    <g id="Page-1" stroke="none" stroke-width="1" fill="none" fill-rule="evenodd">
        <g id="logomark" fill="#231815">
            <path d="M6,9.05703175 C6,9.05703175 6.18029412,8.89715632 6.52441176,8.61092295 C6.61088235,8.54003199 6.70764706,8.46113243 6.81382353,8.37392765 C6.92823529,8.29354501 7.05294118,8.20604362 7.18794118,8.11142346 C7.32617647,8.0165067 7.47470588,7.91447117 7.63352941,7.80531689 C7.79852941,7.7098069 7.97352941,7.60806799 8.15882353,7.50099001 C8.90764706,7.07979686 9.88088235,6.62419638 11.1061765,6.33499686 C12.3258824,6.04223796 13.7988235,5.94109228 15.3826471,6.15821438 C16.1723529,6.26558898 16.9876471,6.45215975 17.795,6.72296914 C18.6108824,6.98191395 19.4144118,7.32865676 20.21,7.72701056 C21.8026471,8.5263877 23.3217647,9.5639466 24.7697059,10.7171853 C26.2102941,11.8751699 27.5858824,13.1494274 28.8997059,14.4693637 C30.2173529,15.7887068 31.4820588,17.1492793 32.7226471,18.4879023 C33.9597059,19.8300847 35.1735294,21.1473515 36.3782353,22.3874983 C37.5855882,23.6208231 38.7764706,24.7924519 39.9791176,25.8071715 C41.1764706,26.8355353 42.3829412,27.7055068 43.5852941,28.4164927 C44.7897059,29.1185801 45.9976471,29.638546 47.1779412,30.0027891 C47.4729412,30.0935533 47.7673529,30.1635544 48.0567647,30.2445303 C48.3511765,30.3047431 48.6388235,30.3637695 48.9191176,30.4216094 C49.2061765,30.4661016 49.4861765,30.5094074 49.7582353,30.5515267 C50.0329412,30.5755525 50.3023529,30.5995783 50.5670588,30.6307229 C51.6223529,30.7039867 52.5794118,30.6941985 53.3773529,30.6455536 C54.1732353,30.5921629 54.8185294,30.5340264 55.255,30.4747034 C55.6994118,30.4260586 55.9364706,30.4002531 55.9364706,30.4002531 C55.9364706,30.4002531 55.7494118,30.5473741 55.3844118,30.8125478 C55.2014706,30.9436516 54.9776471,31.115095 54.6964706,31.2797163 C54.4167647,31.4478969 54.0991176,31.6629427 53.7188235,31.8504033 C53.3423529,32.0503218 52.9182353,32.2644777 52.4358824,32.4572774 C51.9597059,32.6761792 51.4197059,32.8378343 50.8352941,33.0249983 C49.6623529,33.3652156 48.2611765,33.601321 46.7008824,33.584414 C45.1438235,33.5692866 43.4358824,33.294028 41.7329412,32.7277902 C40.0344118,32.1565099 38.3397059,31.3200559 36.7508824,30.2881327 C35.1505882,29.2639214 33.6488235,28.0575887 32.2276471,26.7720597 C30.81,25.4838612 29.4738235,24.1152801 28.2002941,22.7375039 C25.6585294,19.9757226 23.3473529,17.1783476 21.1044118,14.821149 C19.9805882,13.6498168 18.8741176,12.5858591 17.7688235,11.7075824 C17.2152941,11.2712619 16.6670588,10.8651961 16.1155882,10.5264619 C15.8429412,10.3422641 15.5641176,10.2022619 15.2926471,10.0403101 C15.1558824,9.96526656 15.0176471,9.90208758 14.8808824,9.83208647 C14.7438235,9.76386504 14.6088235,9.69030455 14.4714706,9.63513418 C13.3805882,9.14512637 12.2938235,8.8529607 11.2747059,8.7254163 C10.2552941,8.59253282 9.31617647,8.62901646 8.52941176,8.68922928 C8.33117647,8.70732279 8.14352941,8.72422984 7.96705882,8.74024704 C7.79176471,8.76456946 7.62735294,8.78740881 7.47470588,8.80846847 C7.31852941,8.83012135 7.17382353,8.84999455 7.04147059,8.86838468 C6.90705882,8.89359694 6.78470588,8.9167329 6.67529412,8.93719933 C6.23705882,9.01995489 6,9.05703175 6,9.05703175 Z M22.9329766,23.249309 C23.0033524,23.3153306 23.020816,23.435892 22.9733775,23.5274293 C22.9264603,23.6186477 22.8305408,23.651499 22.7507816,23.6020625 C22.5774487,23.49394 22.3717951,23.4390814 22.1398157,23.4390814 C21.4563889,23.4390814 20.7500247,23.9018711 20.4617448,24.3496704 C19.909686,25.2069955 19.8726736,26.4786307 19.8400922,27.6009994 C19.8333153,27.8315969 19.826799,28.0567723 19.8161123,28.2726983 C19.8002126,28.5973846 19.8025584,28.9858601 19.8054256,29.3976185 C19.8124632,30.4169679 19.8200221,31.5725069 19.5541581,32.3752924 C19.3229607,33.0725069 19.1147005,33.3834786 18.8793327,33.3834786 C18.8201649,33.3834786 18.7323256,33.3617903 18.6507418,33.2578142 C18.4200657,32.9637465 18.4096397,32.1842441 18.4239755,31.7456942 C18.4320556,31.5023389 18.4797548,31.1916862 18.5350128,30.8315969 C18.6510025,30.07761 18.8097389,29.044865 18.5261506,28.6669147 C18.4682861,28.58973 18.4294491,28.5693175 18.4171985,28.5693175 C18.3674142,28.5693175 18.188347,28.6972145 17.9808688,30.3423347 C17.966533,30.457474 17.9545431,30.5518818 17.9443777,30.6159898 C17.7859019,31.6334255 17.3573917,34 16.8019445,34 C16.7920397,34 16.7607616,33.9968105 16.7508569,33.9945779 C16.4482411,33.9285562 16.0929738,33.4849033 16.5003713,30.4115458 L16.5040204,30.3825218 C16.5285216,30.1994472 16.5629275,30.0090368 16.5973335,29.8183075 C16.6927317,29.2926855 16.7915184,28.7498405 16.6478997,28.414629 C16.6106267,28.3961301 16.5762207,28.3868807 16.5449426,28.3868807 C16.1972342,28.3868807 15.9702072,29.5889858 15.7877515,30.5547523 C15.5906994,31.5983415 15.404334,32.5845205 15.0065806,32.8846481 C14.6372381,33.1634063 14.340878,33.1264087 14.1672844,32.8189454 C13.6308647,31.8678503 14.545489,28.1703168 14.6661704,27.7808845 C15.5268399,24.9968105 17.6154361,22 20.1677305,22 C21.1222343,22 22.0524976,22.42037 22.9329766,23.249309 Z M8,15 C8,15.5523256 7.61168385,16 7,16 C6.37394564,16 6,15.5523256 6,15 C6,14.4476744 6.38238051,14 7,14 C7.60731022,14 8,14.4476744 8,15 Z M14,15 C14,15.5523256 13.6116232,16 12.9998438,16 C12.3736916,16 12,15.5523256 12,15 C12,14.4476744 12.3821278,14 12.9998438,14 C13.6072489,14 14,14.4476744 14,15 Z" id="Combined-Shape"></path>
        </g>
    </g>
</svg>